<?xml version="1.0" encoding="UTF-8"?>
<svg width="168px" height="42px" viewBox="0 0 168 42" version="1.1" xmlns="http://www.w3.org/2000/svg" xmlns:xlink="http://www.w3.org/1999/xlink">
    <!-- Generator: Sketch 49 (51002) - http://www.bohemiancoding.com/sketch -->
    <title>found-logo</title>
    <desc>Created with Sketch.</desc>
    <defs></defs>
    <g id="Page-1" stroke="none" stroke-width="1" fill="none" fill-rule="evenodd">
        <g id="animated-state-b-copy-2" transform="translate(-93.000000, -58.000000)" fill="#FF4545">
            <g id="found-logo" transform="translate(93.000000, 58.000000)">
                <path d="M40.5287553,33.0323115 C43.5351697,33.0323115 45.8177442,30.5553102 45.8177442,27.5591033 C45.8177442,24.5637172 43.5351697,22.0863055 40.5287553,22.0863055 C37.6337924,22.0863055 35.240163,24.5637172 35.240163,27.5591033 C35.240163,30.5553102 37.6337924,33.0323115 40.5287553,33.0323115 M40.5866625,42 C30.8812588,42 26,34.8095137 26,27.5 C26,20.3095137 30.8812588,13 40.5866625,13 C50.2912729,13 55,20.3095137 55,27.5 C55,34.8095137 50.2912729,42 40.5866625,42" id="Fill-1"></path>
                <path d="M69.328724,29.7538236 C69.328724,32.31014 70.8209852,33.4992008 73.0307194,33.4992008 C75.1794271,33.4992008 76.6725131,32.3692646 76.6725131,29.7538236 L76.6725131,14 L87,14 L87,30.2888188 C87,37.7791627 81.5076209,42 73.0307194,42 C64.5525808,42 59,37.7791627 59,30.2888188 L59,14 L69.328724,14 L69.328724,29.7538236 Z" id="Fill-3"></path>
                <path d="M90,14.4439492 L99.9559817,14.4439492 L99.9559817,16.7772727 C101.229314,15.5551653 103.370992,14 108.523091,14 C115.700529,14 119,17.6106848 119,23.9994097 L119,40 L109.044018,40 L109.044018,26.0553129 C109.044018,22.9438312 108.465522,20.6105077 104.818233,20.6105077 C100.767157,20.6105077 99.9559817,23.2220189 99.9559817,25.1110094 L99.9559817,40 L90,40 L90,14.4439492 Z" id="Fill-5"></path>
                <path d="M137.577176,32.5138707 C140.485569,32.5138707 142.890303,30.1538322 142.890303,27.2999685 C142.890303,24.4461048 140.485569,22.0864573 137.577176,22.0864573 C134.668783,22.0864573 132.264049,24.4461048 132.264049,27.2999685 C132.264049,30.1538322 134.668783,32.5138707 137.577176,32.5138707 Z M152,0 L152,40.433841 L143.173213,40.433841 L143.173213,38.7920581 C141.846325,39.6979907 139.365485,41 135.211492,41 C126.384704,41 122,34.263177 122,27.5263539 C122,20.7899219 126.384704,14.0530989 135.211492,14.0530989 C139.94286,14.0530989 141.731169,15.0720287 143.173213,16.0909585 L143.173213,0 L152,0 Z" id="Fill-7"></path>
                <path d="M161.451541,41.8248312 C157.905691,41.8248312 155.099454,39.0177687 155.099454,35.4723312 C155.099454,31.9264812 157.905691,29.1190062 161.451541,29.1190062 C164.998216,29.1190062 167.804454,31.9264812 167.804454,35.4723312 C167.804454,39.0177687 164.998216,41.8248312 161.451541,41.8248312" id="Fill-9"></path>
                <polygon id="Fill-12" points="10.0445346 8.76065672 10.0445346 41 0 41 0 0 29 0 29 8.76065672"></polygon>
                <path d="M17.9994156,29 C14.6504334,29 12,26.3489595 12,23.0001948 C12,19.6514301 14.6504334,17 17.9994156,17 C21.349177,17 24,19.6514301 24,23.0001948 C24,26.3489595 21.349177,29 17.9994156,29" id="Fill-14"></path>
            </g>
        </g>
    </g>
</svg>